<svg xmlns="http://www.w3.org/2000/svg" viewBox="0 0 64 64" fill="none">
  <rect width="64" height="64" rx="14" fill="#1B2A4A"/>
  <!-- Rocket body -->
  <path d="M32 12c5 3 8 9 8 16v10H24V28c0-7 3-13 8-16z" fill="#fff"/>
  <!-- Window -->
  <circle cx="32" cy="26" r="4.5" fill="#7B1C3E"/>
  <circle cx="32" cy="26" r="2.5" fill="#fff"/>
  <!-- Fins -->
  <path d="M24 34l-5 6v-6h5z" fill="#7B1C3E"/>
  <path d="M40 34l5 6v-6h-5z" fill="#7B1C3E"/>
  <!-- Flame -->
  <path d="M28 38c0 4 1.8 8 4 12 2.2-4 4-8 4-12 0-2-1.8-3-4-3s-4 1-4 3z" fill="#C8A0B0"/>
  <path d="M30 39c0 2.5 1 5 2 7.5 1-2.5 2-5 2-7.5 0-1.2-1-1.8-2-1.8s-2 .6-2 1.8z" fill="#7B1C3E"/>
  <!-- Checklist lines on rocket body -->
  <line x1="28" y1="32" x2="36" y2="32" stroke="#1B2A4A" stroke-width="1.5" stroke-linecap="round"/>
  <line x1="29" y1="35" x2="35" y2="35" stroke="#1B2A4A" stroke-width="1.2" stroke-linecap="round" opacity="0.5"/>
</svg>
